<?xml version="1.0" encoding="UTF-8"?>
<svg id="uuid-207bbd70-d5ad-4ef4-a63a-f6fe7d8a4ee5" data-name="Capa 1" xmlns="http://www.w3.org/2000/svg" viewBox="0 0 1366 768">
  <g>
    <path d="M466.5,325.89v74.18h52.68v46.36h-52.68v128.12h-46.36v-295.02h122.22v20.44c0,14.31-11.6,25.92-25.92,25.92h-49.95Z" style="fill: #fff;"/>
    <path d="M632.98,577.92c-20.23,0-36.53-5.76-48.89-17.28-14.05-13.49-21.07-31.89-21.07-55.21v-225.9h20.44c14.31,0,25.92,11.6,25.92,25.92v199.98c0,10.4,1.96,17.42,5.9,21.07,3.65,3.37,9.55,5.06,17.7,5.06s13.62-1.69,17.28-5.06c4.21-3.94,6.32-10.95,6.32-21.07v-199.98c0-14.31,11.6-25.92,25.92-25.92h20.44v225.9c0,22.75-7.03,41.16-21.07,55.21-12.93,11.52-29.23,17.28-48.89,17.28Z" style="fill: #fff;"/>
    <path d="M780.9,325.89v74.18h52.26v46.36h-52.26v81.75h49.95c14.31,0,25.92,11.6,25.92,25.92v20.45h-122.22v-295.02h122.22v20.44c0,14.31-11.6,25.92-25.92,25.92h-49.95Z" style="fill: #fff;"/>
    <path d="M947.37,577.92c-19.67,0-35.97-5.76-48.89-17.28-14.05-14.05-21.07-32.46-21.07-55.21v-156.78c0-22.76,7.02-41.15,21.07-55.2,12.92-11.52,29.22-17.29,48.89-17.29s36.52,5.76,48.88,17.29c14.04,13.48,21.07,31.89,21.07,55.2v26.13h-46.35v-26.13c0-10.39-1.97-17.42-5.9-21.07-3.65-3.37-9.55-5.05-17.7-5.05s-13.63,1.68-17.28,5.05c-4.21,3.94-6.32,10.96-6.32,21.07v156.78c0,10.12,2.11,17.13,6.32,21.07,3.65,3.37,9.41,5.06,17.28,5.06s14.04-1.69,17.7-5.06c3.93-3.65,5.9-10.67,5.9-21.07v-55.21h-23.18v-20.44c0-14.31,11.6-25.92,25.92-25.92h43.62v101.57c0,23.32-7.03,41.72-21.07,55.21-12.37,11.52-28.66,17.28-48.88,17.28Z" style="fill: #fff;"/>
    <path d="M1114.68,577.92c-20.23,0-36.53-5.76-48.89-17.28-14.05-13.49-21.07-31.89-21.07-55.21v-156.78c0-23.32,7.02-41.72,21.07-55.2,12.36-11.52,28.66-17.29,48.89-17.29s36.52,5.76,48.88,17.29c14.04,13.48,21.07,31.89,21.07,55.2v156.78c0,23.32-7.03,41.72-21.07,55.21-12.37,11.52-28.66,17.28-48.88,17.28ZM1114.68,322.53c-7.87,0-13.63,1.68-17.29,5.05-4.21,3.94-6.32,10.96-6.32,21.07v156.78c0,10.12,2.11,17.13,6.32,21.07,3.65,3.37,9.42,5.06,17.29,5.06s13.91-1.69,17.28-5.06c4.21-3.65,6.32-10.67,6.32-21.07v-156.78c0-10.39-2.11-17.42-6.32-21.07-3.37-3.37-9.13-5.05-17.28-5.05Z" style="fill: #fff;"/>
  </g>
  <g>
    <polygon points="240.41 511.78 240.41 574.53 181.37 574.53 181.37 463.45 240.41 511.78" style="fill: #fff;"/>
    <polygon points="329.08 513 329.08 456.42 388.23 456.42 388.23 567.5 329.08 513" style="fill: #fff;"/>
    <polygon points="388.23 574.53 321.76 574.53 181.37 456.42 262.6 456.42 329.08 518.99 388.23 574.53" style="fill: #fff;"/>
    <path d="M371.88,390.21c-5.48,36.71-46.61,57.35-103.26,57.49-3.58,0-7.16-.06-10.67-.21-62.22-2.62-63.6-49.86-60.39-83.58,1.19-12.49,1.45-24.77-1.14-37.02-1.26-6.04-3.23-12.07-5.97-18.11,8.63,3.93,14.53,10.46,19.09,18.11,1.54,2.67,2.95,5.41,4.21,8.21.84-2.74,1.54-5.48,2.11-8.21,5.83-27.45-.42-55.11-16.5-78.76,4.91,1.05,8.99,4.35,13.27,7.3,19.73,13.62,33.55,33.41,39.66,56.58,6.18,23.31,5.12,38.82,2.88,59.25l-1.83,13.24c-3.63,28.64,27.5,25.44,32.91,24.74,10.74-1.4,14.94-2.71,20.48-7.67,1.28-1.15,2.3-3.14,3.37-5.57,2.21-5.03,3.03-10.56,2.91-16.05-.04-1.68-.1-3.32-.22-4.47,0-.28-.07-.56-.07-.84-4.07-35.59-35.73-62.97-44.93-105.72-6.32-29.48.21-60.02,24.08-78.83-11.86,22.32-9.13,47.8,5.69,68.37,18.39,25.55,44.43,36.08,63.04,68.44,3.44,5.9,6.88,12.35,9.41,19.94,5.97,18.95,1.9,43.38,1.9,43.38Z" style="fill: #fff;"/>
  </g>
</svg>